<svg width="1760" height="1731" viewBox="0 0 1760 1731" fill="none" xmlns="http://www.w3.org/2000/svg">
<path d="M62.9456 67.4112C67.1447 67.4112 70.5488 64.0142 70.5488 59.8238C70.5488 55.6335 67.1447 52.2365 62.9456 52.2365C58.7465 52.2365 55.3424 55.6335 55.3424 59.8238C55.3424 64.0142 58.7465 67.4112 62.9456 67.4112Z" fill="#8260C9"/>
<path d="M446.792 306.451C449.761 306.451 452.168 304.049 452.168 301.087C452.168 298.124 449.761 295.722 446.792 295.722C443.823 295.722 441.416 298.124 441.416 301.087C441.416 304.049 443.823 306.451 446.792 306.451Z" fill="#FA2861"/>
<path d="M1117.33 419.495C1121.19 419.495 1124.32 416.373 1124.32 412.521C1124.32 408.669 1121.19 405.547 1117.33 405.547C1113.47 405.547 1110.34 408.669 1110.34 412.521C1110.34 416.373 1113.47 419.495 1117.33 419.495Z" fill="#FA2861"/>
<path d="M1180.08 8.93488C1182.37 8.93488 1184.23 7.08198 1184.23 4.79632C1184.23 2.51066 1182.37 0.657761 1180.08 0.657761C1177.79 0.657761 1175.93 2.51066 1175.93 4.79632C1175.93 7.08198 1177.79 8.93488 1180.08 8.93488Z" fill="#FA2861"/>
<path d="M663.982 549.17C670.09 549.17 675.042 544.229 675.042 538.134C675.042 532.039 670.09 527.098 663.982 527.098C657.875 527.098 652.923 532.039 652.923 538.134C652.923 544.229 657.875 549.17 663.982 549.17Z" fill="#82759C"/>
<path d="M986.696 718.775C988.647 718.775 990.229 717.196 990.229 715.249C990.229 713.302 988.647 711.724 986.696 711.724C984.745 711.724 983.163 713.302 983.163 715.249C983.163 717.196 984.745 718.775 986.696 718.775Z" fill="#82759C"/>
<path d="M1434.21 609.103C1438.45 609.103 1441.89 605.671 1441.89 601.439C1441.89 597.206 1438.45 593.775 1434.21 593.775C1429.97 593.775 1426.53 597.206 1426.53 601.439C1426.53 605.671 1429.97 609.103 1434.21 609.103Z" fill="#82759C"/>
<path d="M1557.09 1038.29C1561.33 1038.29 1564.77 1034.86 1564.77 1030.62C1564.77 1026.39 1561.33 1022.96 1557.09 1022.96C1552.85 1022.96 1549.41 1026.39 1549.41 1030.62C1549.41 1034.86 1552.85 1038.29 1557.09 1038.29Z" fill="#82759C"/>
<path d="M983.01 1118.76C992.553 1118.76 1000.29 1111.04 1000.29 1101.51C1000.29 1091.99 992.553 1084.27 983.01 1084.27C973.466 1084.27 965.73 1091.99 965.73 1101.51C965.73 1111.04 973.466 1118.76 983.01 1118.76Z" fill="#6442AB"/>
<path d="M598.856 1334.73C605.558 1334.73 610.99 1329.31 610.99 1322.62C610.99 1315.93 605.558 1310.51 598.856 1310.51C592.154 1310.51 586.722 1315.93 586.722 1322.62C586.722 1329.31 592.154 1334.73 598.856 1334.73Z" fill="#5A6ED0"/>
<path d="M166.933 1346C170.284 1346 173 1343.29 173 1339.94C173 1336.6 170.284 1333.89 166.933 1333.89C163.582 1333.89 160.866 1336.6 160.866 1339.94C160.866 1343.29 163.582 1346 166.933 1346Z" fill="#82759C"/>
<path d="M496.866 841.322C498.52 841.322 499.861 839.984 499.861 838.333C499.861 836.682 498.52 835.344 496.866 835.344C495.211 835.344 493.87 836.682 493.87 838.333C493.87 839.984 495.211 841.322 496.866 841.322Z" fill="#82759C"/>
<path d="M139.976 646.886C144.472 646.886 148.117 643.249 148.117 638.762C148.117 634.276 144.472 630.639 139.976 630.639C135.48 630.639 131.835 634.276 131.835 638.762C131.835 643.249 135.48 646.886 139.976 646.886Z" fill="#82759C"/>
<path d="M831.099 294.189C833.559 294.189 835.554 292.199 835.554 289.744C835.554 287.289 833.559 285.299 831.099 285.299C828.639 285.299 826.645 287.289 826.645 289.744C826.645 292.199 828.639 294.189 831.099 294.189Z" fill="#596CCB"/>
<path d="M1312.02 1484.25C1316.64 1484.25 1320.39 1480.51 1320.39 1475.9C1320.39 1471.29 1316.64 1467.55 1312.02 1467.55C1307.4 1467.55 1303.65 1471.29 1303.65 1475.9C1303.65 1480.51 1307.4 1484.25 1312.02 1484.25Z" fill="#6442AB"/>
<path d="M1678.66 1646.89C1681.12 1646.89 1683.12 1644.89 1683.12 1642.44C1683.12 1639.98 1681.12 1637.99 1678.66 1637.99C1676.2 1637.99 1674.21 1639.98 1674.21 1642.44C1674.21 1644.89 1676.2 1646.89 1678.66 1646.89Z" fill="#4570A6"/>
<path d="M985.16 1730.35C987.62 1730.35 989.614 1728.36 989.614 1725.9C989.614 1723.45 987.62 1721.46 985.16 1721.46C982.7 1721.46 980.706 1723.45 980.706 1725.9C980.706 1728.36 982.7 1730.35 985.16 1730.35Z" fill="#6442AB"/>
<path d="M496.866 1595.15C499.835 1595.15 502.242 1592.75 502.242 1589.79C502.242 1586.83 499.835 1584.42 496.866 1584.42C493.897 1584.42 491.49 1586.83 491.49 1589.79C491.49 1592.75 493.897 1595.15 496.866 1595.15Z" fill="#8260C9"/>
<path d="M40.52 1681.53C42.9801 1681.53 44.9744 1679.54 44.9744 1677.08C44.9744 1674.63 42.9801 1672.64 40.52 1672.64C38.0599 1672.64 36.0656 1674.63 36.0656 1677.08C36.0656 1679.54 38.0599 1681.53 40.52 1681.53Z" fill="#28BCFA"/>
<path d="M3.656 1033C5.60711 1033 7.1888 1031.42 7.1888 1029.47C7.1888 1027.53 5.60711 1025.95 3.656 1025.95C1.70489 1025.95 0.123199 1027.53 0.123199 1029.47C0.123199 1031.42 1.70489 1033 3.656 1033Z" fill="#82759C"/>
<path d="M1755.46 803.845C1757.92 803.845 1759.92 801.855 1759.92 799.4C1759.92 796.945 1757.92 794.955 1755.46 794.955C1753 794.955 1751.01 796.945 1751.01 799.4C1751.01 801.855 1753 803.845 1755.46 803.845Z" fill="#4570A6"/>
<path d="M1618.45 35.4523C1621.8 35.4523 1624.52 32.7416 1624.52 29.3978C1624.52 26.0539 1621.8 23.3432 1618.45 23.3432C1615.1 23.3432 1612.39 26.0539 1612.39 29.3978C1612.39 32.7416 1615.1 35.4523 1618.45 35.4523Z" fill="#82759C"/>
</svg>
